# xmcd CD database file
#
# Track frame offsets:
#	150
#	15167
#	31049
#	51039
#	68932
#	86206
#	100709
#	116870
#	133471
#	162605
#	181749
#	199593
#	218348
#	236631
#	250455
#	265523
#	286433
#	302431
#	317112
#	332354
#
# Disc length: 4695 seconds
#
# Revision: 0
# Processed by: cddbd v1.5.2PL0 Copyright (c) Steve Scherf et al.
# Submitted via: CDex 1.51
#
DISCID=12125514
DTITLE=The Real Book Play-Along - Volume I E-K CD1
DYEAR=1900
DGENRE=Jazz
TTITLE0=Easter Parade
TTITLE1=Easy Living
TTITLE2=Easy to Love (You'd Be So Easy to Love)
TTITLE3=Epistrophy
TTITLE4=Equinox
TTITLE5=E.S.P.
TTITLE6=Falling in Love with Love
TTITLE7=A Fine Romance
TTITLE8=500 Miles High
TTITLE9=Footprints
TTITLE10=For All We Know
TTITLE11=For Heaven's Sake
TTITLE12=(I Love You) For Sentimental Reasons
TTITLE13=Four
TTITLE14=Four on Six
TTITLE15=Freddie Freeloader
TTITLE16=Full House
TTITLE17=Gee Baby, Ain't I Good to You
TTITLE18=Giant Steps
TTITLE19=The Girl from Ipanema (Garôta de Ipanema)
EXTD=
EXTT0=
EXTT1=
EXTT2=
EXTT3=
EXTT4=
EXTT5=
EXTT6=
EXTT7=
EXTT8=
EXTT9=
EXTT10=
EXTT11=
EXTT12=
EXTT13=
EXTT14=
EXTT15=
EXTT16=
EXTT17=
EXTT18=
EXTT19=
PLAYORDER=
